<svg width="580" height="400" xmlns="http://www.w3.org/2000/svg">
 <!-- Created with Method Draw - http://github.com/duopixel/Method-Draw/ -->
 <g>
  <title>background</title>
  <rect fill="#fff" id="canvas_background" height="402" width="582" y="-1" x="-1"/>
  <g display="none" overflow="visible" y="0" x="0" height="100%" width="100%" id="canvasGrid">
   <rect fill="url(#gridpattern)" stroke-width="0" y="0" x="0" height="100%" width="100%"/>
  </g>
 </g>
 <g>
  <title>Layer 1</title>
  <path d="m178,322.453125c-1,-1 -1,-2 -1,-4c0,-3 0.832214,-9.057983 0,-15c-1.009766,-7.209747 -1.957764,-15.023621 -3,-38c-0.500519,-11.034012 -2,-37 -2,-48c0,-16 0,-23 0,-31c0,-13 0,-16 0,-20c0,-2 0,-5 0,-7c0,-2 -0.098541,-4.004868 0,-5c0.502441,-5.074203 1.310745,-7.080246 2,-10c1.027481,-4.352509 2,-5 2,-6c0,-1 -0.152237,-1.234634 -2,-2c-1.306564,-0.541199 -2.372009,-1.385101 -6,-4c-1.147263,-0.826904 -3.763931,-1.527863 -6,-6c-0.894424,-1.788857 -1.258011,-3.904366 -3,-9c-2.35495,-6.888702 -2,-9 -2,-16c0,-3 0,-6 0,-10c0,-1 2.134109,-4.837891 7,-9c6.126694,-5.24057 10.604858,-7.865761 23,-13c8.764694,-3.630455 15.646317,-7.916405 25,-11c8.756012,-2.886562 22,-6 29,-6c5,0 16,0 21,0c5,0 15,3 19,5c4,2 8.346191,6.70546 10,9c1.307465,1.813995 7.793945,12.08744 10,17c1.832031,4.079659 4.486267,8.823746 5,11c0.229767,0.973251 -0.416107,1.971001 0,-1c1.009766,-7.20974 5.385101,-17.372017 8,-21c2.480713,-3.441811 7.819397,-9.192211 11,-12c8.547638,-7.545712 18.091156,-11.795677 25,-15c14.199585,-6.585747 29.83551,-12.993992 39,-14c18.886536,-2.073219 24,0 32,0c8,0 22.119537,5.77195 28,9c5.11145,2.805908 15.21167,8.714119 18,11c3.281006,2.689789 5.847229,6.041325 7,10c2.652405,9.108498 3.787323,12.007545 4,15c0.501251,7.053276 1,9 1,12c0,4 0.320374,5.025826 0,7c-0.506531,3.121445 -3.173096,5.85273 -4,7c-3.922363,5.441978 -5,8 -7,10c-3,3 -6.372009,3.385094 -10,6c-2.294525,1.653809 -2,3 -2,4c0,1 0,4 0,7c0,6 0,9 0,13c0,5 0,11 0,14c0,6 0,9 0,12c0,6 0,7 0,10c0,7 0.496216,10.907791 1,15c1.344025,10.917587 0,14 0,20c0,3 0,12 0,21c0,4 0.276489,9.007645 0,14c-0.500763,9.041534 -1.881775,16.0271 -4,25c-0.947296,4.012817 -1.497559,5.925781 -2,11c-0.197083,1.990265 0,3 0,6c0,3 0,8 0,12c0,2 -1,6 -1,9c0,1 -0.458801,5.693451 -1,7c-0.765381,1.847748 -1.95517,2.549164 -3,6c-0.289795,0.957092 -2.528137,3.118317 -3,4c-1.701294,3.178925 -7.007507,2.877808 -8,3c-4.092224,0.503784 -8.925781,2.497559 -14,3c-3.98053,0.394165 -12,1 -15,1c-4,0 -12,1 -17,1c-9,0 -12,0 -17,0c-4,0 -16.003876,-0.232941 -23,0c-15.024963,0.500275 -26,2 -27,2c-17,0 -26,0 -27,0c-10,0 -17,0 -19,0c-8,0 -11,0 -15,0c-10,0 -14,0 -17,0c-6,0 -8,0 -9,0c-5,0 -8,0 -10,0c-3,0 -4.053497,0.459503 -6,0c-2.176254,-0.513733 -2.823746,-1.486267 -5,-2c-0.973251,-0.229767 -3,-1 -4,-1c-1,0 -1.292892,-0.292908 -2,-1c-0.707108,-0.707092 -0.61731,-1.076111 -1,-2c-0.541199,-1.306549 -2.292892,-1.292908 -3,-2c-0.707108,-0.707092 -1.076126,-0.61731 -2,-1c-1.306564,-0.541199 -1.693436,-1.458801 -3,-2c-0.923874,-0.38269 -2,0 -3,0c-1,0 -3,-1 -4,-1c-1,0 -1,-1 -2,-1c-1,0 -2.076126,0.38269 -3,0c-1.306564,-0.541199 -1.292892,-1.292908 -2,-2c-0.707108,-0.707092 -2,-1 -2,-2c0,-1 -0.61731,-1.076111 -1,-2c-0.541199,-1.306549 -2,-1 -2,-2l0,-1l-1,0" id="svg_1" stroke-width="1.5" stroke="#000" fill="none"/>
  <path d="m220,169.453125c0,0 0.076126,0.38269 1,0c2.613129,-1.082397 4.733246,-5.232742 10,-11c6.675613,-7.310013 10.087433,-9.79393 15,-12c4.079666,-1.832031 8.133759,-5.148758 13,-4c6.528748,1.541229 8.21167,4.714127 11,7c4.374695,3.58638 6.714111,6.21167 9,9c4.482971,5.468353 6.337494,6.310013 8,9c2.973999,4.812012 5,5 9,7c2,1 3.012909,1.160187 4,1c3.121429,-0.506546 4,-2 6,-4c3,-3 2.427948,-7.231827 9,-14c2.511749,-2.586716 5,-4 7,-6c1,-1 2,-2 5,-2c1,0 2.309998,-0.662506 5,1c1.203003,0.7435 2.346191,2.70546 4,5c1.307465,1.813995 2.718994,4.310211 6,7c2.78833,2.285873 3.549164,3.95517 7,5c2.871277,0.869354 6.020416,0.201065 7,0c7.460236,-1.531265 8,-5 13,-10c3,-3 4,-4 7,-7c1,-1 2.292908,-1.292892 3,-2c0.707092,-0.707108 1.585785,-2.414215 3,-1c0.707092,0.707108 -0.07193,1.611038 2,4c1.465088,1.68924 2.080322,6.376419 6,8c0.923889,0.38269 3,2 6,2l1,0l2,0l1,0" id="svg_6" stroke-width="1.5" stroke="#000" fill="none"/>
  <path d="m217,232.453125c1,0 1.222733,-0.723984 5,-4c2.136749,-1.853195 4.07843,-2.789856 7,-4c2.065857,-0.855713 3,-1 6,-1c1,0 2.448044,-1.577194 5,0c1.902115,1.175568 2.292892,3.292892 3,4c0.707108,0.707108 3,1 4,1c1,0 2,0 3,0c1,0 1.292892,-0.292892 2,-1c0.707108,-0.707108 2,0 3,0l0,-1l1,0" id="svg_7" stroke-width="1.5" stroke="#000" fill="none"/>
  <path d="m290,207.453125c0,0 0,1 0,4c0,3 0.990234,6.790253 2,14c0.277405,1.980667 0.986908,3.757111 2,10c0.160187,0.987091 -1.530731,3.304489 0,7c0.541199,1.306564 1,3 1,5c0,1 0,2 0,3c0,1 1,1 2,1c1,0 3.060822,0.359299 10,-1c4.046204,-0.792603 6.006805,-0.835037 8,-1c6.062042,-0.501709 8,-1 14,-1c3,0 5,0 10,0c2,0 4,0 10,0c1,0 3,0 6,0c1,0 3,0 5,0c1,0 4.025818,0.320358 6,0c3.121429,-0.506546 4,-1 6,-1c1,0 3,0 5,0c2,0 3,0 4,0c1,0 3,0 6,0c1,0 3,0 4,0c1,0 2,0 3,0c1,0 3,0 4,0c1,0 4,0 5,0c1,0 2.292908,0.707108 3,0c0.707092,-0.707108 0.486267,-3.823746 1,-6c0.459503,-1.946503 0,-3 0,-5c0,-1 0,-6 0,-7c0,-2 0,-4 0,-5c0,-1 0,-2 0,-3c0,-1 0,-2 0,-3c0,-1 0,-2 0,-3c0,-1 0,-2 0,-3c0,-1 -1.458801,-1.693436 -2,-3c-0.765381,-1.847763 0,-3 0,-4c0,-2 -1,-2 -5,-2c-3,0 -6,0 -10,0c-3,0 -4,0 -9,0c-3,0 -8,0 -10,0c-1,0 -5,0 -7,0c-3,0 -8,0 -10,0c-2,0 -5,0 -6,0c-2,0 -5,0 -8,0c-6,0 -7,1 -9,1c-3,0 -5,0 -7,0c-2,0 -6,0 -8,0c-1,0 -3,0 -5,0c-1,0 -2,0 -5,0c-2,0 -3.878571,1.493454 -7,2c-0.987091,0.160187 -2,0 -4,0c-1,0 -2,0 -3,0c-1,0 -2,0 -3,0l-1,0" id="svg_8" stroke-width="1.5" stroke="#000" fill="none"/>
  <path d="m210,302.453125c0,0 0.723984,-1.222717 4,-5c1.853195,-2.136749 5.805649,-4.448395 10,-6c3.867004,-1.430481 10.012909,-2.839813 11,-3c3.121445,-0.506531 9,-1 13,-1c2,0 6.025818,-0.320374 8,0c3.121429,0.506531 5.21167,2.714111 8,5c3.281006,2.689789 3.796997,4.2565 5,5c2.690002,1.662506 5,1 7,1c2,0 4.085815,0.579559 6,0c3.450836,-1.04483 4.004852,-2.901459 5,-3c5.074219,-0.502441 5.878571,-1.493469 9,-2c2.961273,-0.48056 4,0 5,0c2,0 4,0 5,0c3,0 4,0 6,1c2,1 4,1 5,1c2,0 3,0 5,0c1,0 3,0 4,0l2,-1" id="svg_9" stroke-width="1.5" stroke="#000" fill="none"/>
  <path d="m363,276.453125c0,0 0,2 0,4c0,3 -1.37851,6.160492 0,12c0.513733,2.176239 1,4 1,8c0,1 0.496216,2.907776 1,7c0.244354,1.985016 0,5 0,6c0,1 0,2 0,3c0,1 -0.707092,2.292908 0,3c0.707092,0.707092 2,0 3,0c1,0 2,0 4,0c1,0 2,0 5,0c1,0 4,0 7,0c1,0 3.076111,-0.38269 4,0c1.306549,0.541199 2,1 3,1c1,0 2,0 4,0c1,0 2,0 3,0c1,0 2,0 3,0c1,0 2,0 3,0c1,0 2,0 3,0c1,0 1,-2 1,-3c0,-4 0,-5 0,-7c0,-1 0,-6 0,-9c0,-2 0,-5 0,-7c0,-1 -0.486267,-1.823761 -1,-4c-0.229767,-0.973236 -1,-2 -1,-5c0,-1 0,-2 0,-3c0,-1 0,-2 0,-3c0,-1 0.306549,-2.458801 -1,-3c-0.923889,-0.38269 -2,0 -3,0c-1,0 -2,0 -3,0c-1,0 -2,0 -4,0c-2,0 -4,0 -5,0c-1,0 -2,0 -3,0c-1,0 -2,0 -3,0c-1,0 -2,0 -3,0c-1,0 -2,0 -3,0c-1,0 -2,0 -3,0c-1,0 -2,0 -3,0c-1,0 -2,0 -3,0c-1,0 -2,0 -3,0l-1,0l-1,0" id="svg_10" stroke-width="1.5" stroke="#000" fill="none"/>
 </g>
</svg>